<svg xmlns="http://www.w3.org/2000/svg" viewBox="0 0 400 300" width="100%" height="100%">
  <!-- Card Background -->
  <rect x="2" y="2" width="396" height="296" rx="14" fill="#ffffff" stroke="#d6d9dc" stroke-width="2"/>

  <!-- Header: BHIM UPI / POS BHARATQR -->
  <g transform="translate(18, 16)">
    <!-- Mini QR Icon -->
    <g fill="#0e5831">
      <rect x="0" y="2" width="5" height="5" rx="0.8"/>
      <rect x="7" y="2" width="5" height="5" rx="0.8"/>
      <rect x="0" y="9" width="5" height="5" rx="0.8"/>
      <rect x="8" y="10" width="4" height="4" rx="0.8"/>
      <rect x="1.5" y="3.5" width="2" height="2" fill="#ffffff"/>
      <rect x="8.5" y="3.5" width="2" height="2" fill="#ffffff"/>
      <rect x="1.5" y="10.5" width="2" height="2" fill="#ffffff"/>
    </g>
    <text x="18" y="12.5" fill="#0e5831" font-family="-apple-system, BlinkMacSystemFont, 'Segoe UI', Roboto, Helvetica, Arial, sans-serif" font-size="13" font-weight="800" letter-spacing="0.3">BHIM UPI / POS BHARATQR</text>
    <text x="364" y="12.5" text-anchor="end" fill="#525d67" font-family="-apple-system, BlinkMacSystemFont, 'Segoe UI', Roboto, Helvetica, Arial, sans-serif" font-size="12" font-weight="800" letter-spacing="0.4">INSTANT PAY</text>
  </g>

  <!-- Dashed Line -->
  <line x1="18" y1="40" x2="382" y2="40" stroke="#d5d9dc" stroke-dasharray="3.5, 3" stroke-width="1.5"/>

  <!-- Inner QR Box -->
  <rect x="18" y="50" width="364" height="170" rx="8" fill="#ffffff" stroke="#e2e5e8" stroke-width="1.2"/>

  <!-- QR Code in Rich Green (#1a5d28) -->
  <g transform="translate(136, 62)">
    <!-- Top-Left Finder Pattern -->
    <rect x="0" y="0" width="40" height="40" rx="6" fill="#1b5e20"/>
    <rect x="5.5" y="5.5" width="29" height="29" rx="3.5" fill="#ffffff"/>
    <rect x="11.5" y="11.5" width="17" height="17" rx="2" fill="#1b5e20"/>

    <!-- Top-Right Finder Pattern -->
    <rect x="88" y="0" width="40" height="40" rx="6" fill="#1b5e20"/>
    <rect x="93.5" y="5.5" width="29" height="29" rx="3.5" fill="#ffffff"/>
    <rect x="99.5" y="11.5" width="17" height="17" rx="2" fill="#1b5e20"/>

    <!-- Bottom-Left Finder Pattern -->
    <rect x="0" y="88" width="40" height="40" rx="6" fill="#1b5e20"/>
    <rect x="5.5" y="93.5" width="29" height="29" rx="3.5" fill="#ffffff"/>
    <rect x="11.5" y="99.5" width="17" height="17" rx="2" fill="#1b5e20"/>

    <!-- Center Rupee Badge -->
    <rect x="49" y="49" width="30" height="30" rx="4" fill="#1b5e20"/>
    <text x="64" y="69.5" text-anchor="middle" fill="#ffffff" font-family="-apple-system, BlinkMacSystemFont, 'Segoe UI', Roboto, sans-serif" font-size="17" font-weight="900">₹</text>

    <!-- Top Middle Data Modules -->
    <rect x="47" y="7" width="9" height="9" rx="1.5" fill="#1b5e20"/>
    <rect x="61" y="7" width="9" height="9" rx="1.5" fill="#1b5e20"/>
    <rect x="47" y="24" width="9" height="9" rx="1.5" fill="#1b5e20"/>
    <rect x="61" y="24" width="9" height="9" rx="1.5" fill="#1b5e20"/>

    <!-- Right Data Modules -->
    <rect x="88" y="58" width="8" height="8" rx="1.5" fill="#1b5e20"/>
    <rect x="102" y="58" width="8" height="8" rx="1.5" fill="#1b5e20"/>
    <rect x="116" y="58" width="8" height="8" rx="1.5" fill="#1b5e20"/>

    <!-- Bottom Data Modules -->
    <rect x="47" y="90" width="8" height="8" rx="1.5" fill="#1b5e20"/>
    <rect x="61" y="90" width="8" height="8" rx="1.5" fill="#1b5e20"/>
    <rect x="74" y="90" width="8" height="8" rx="1.5" fill="#1b5e20"/>
    <rect x="61" y="104" width="8" height="8" rx="1.5" fill="#1b5e20"/>

    <!-- Bottom-Right Modules -->
    <rect x="102" y="88" width="8" height="8" rx="1.5" fill="#1b5e20"/>
    <rect x="116" y="88" width="8" height="8" rx="1.5" fill="#1b5e20"/>
    <rect x="102" y="103" width="8" height="8" rx="1.5" fill="#1b5e20"/>
    <rect x="116" y="118" width="8" height="8" rx="1.5" fill="#1b5e20"/>
  </g>

  <!-- Linear Barcode Section -->
  <g transform="translate(108, 236)">
    <!-- High Density Precise Barcode Bars -->
    <rect x="0" y="0" width="4" height="28" fill="#111827"/>
    <rect x="6" y="0" width="2" height="28" fill="#111827"/>
    <rect x="10" y="0" width="5" height="28" fill="#111827"/>
    <rect x="18" y="0" width="2" height="28" fill="#111827"/>
    <rect x="23" y="0" width="4" height="28" fill="#111827"/>
    <rect x="30" y="0" width="2" height="28" fill="#111827"/>
    <rect x="34" y="0" width="5" height="28" fill="#111827"/>
    <rect x="42" y="0" width="3" height="28" fill="#111827"/>
    <rect x="48" y="0" width="2" height="28" fill="#111827"/>
    <rect x="53" y="0" width="5" height="28" fill="#111827"/>
    <rect x="60" y="0" width="3" height="28" fill="#111827"/>
    <rect x="65" y="0" width="2" height="28" fill="#111827"/>
    <rect x="70" y="0" width="4" height="28" fill="#111827"/>
    <rect x="76" y="0" width="3" height="28" fill="#111827"/>
    <rect x="81" y="0" width="5" height="28" fill="#111827"/>
    <rect x="89" y="0" width="2" height="28" fill="#111827"/>
    <rect x="94" y="0" width="4" height="28" fill="#111827"/>
    <rect x="100" y="0" width="2" height="28" fill="#111827"/>
    <rect x="105" y="0" width="4" height="28" fill="#111827"/>
    <rect x="112" y="0" width="3" height="28" fill="#111827"/>
    <rect x="117" y="0" width="2" height="28" fill="#111827"/>
    <rect x="122" y="0" width="5" height="28" fill="#111827"/>
    <rect x="129" y="0" width="3" height="28" fill="#111827"/>
    <rect x="135" y="0" width="2" height="28" fill="#111827"/>
    <rect x="140" y="0" width="4" height="28" fill="#111827"/>
    <rect x="146" y="0" width="2" height="28" fill="#111827"/>
    <rect x="151" y="0" width="5" height="28" fill="#111827"/>
    <rect x="159" y="0" width="3" height="28" fill="#111827"/>
    <rect x="165" y="0" width="2" height="28" fill="#111827"/>
    <rect x="170" y="0" width="5" height="28" fill="#111827"/>
    <rect x="178" y="0" width="4" height="28" fill="#111827"/>

    <!-- Barcode Label Text -->
    <text x="92" y="40" text-anchor="middle" fill="#667085" font-family="'Courier New', Courier, monospace" font-size="12" font-weight="800" letter-spacing="1.5">*PAY-100-3534*</text>
  </g>
</svg>
